<mxfile host="Electron" modified="2024-04-14T06:13:12.917Z" agent="Mozilla/5.0 (Macintosh; Intel Mac OS X 10_15_7) AppleWebKit/537.36 (KHTML, like Gecko) draw.io/24.2.5 Chrome/120.0.6099.109 Electron/28.1.0 Safari/537.36" etag="MOIeQYcvoXEvZfv_IN2p" version="24.2.5" type="device">
  <diagram name="Seite-1" id="fqKEJnnhtmjJzmagiVmQ">
    <mxGraphModel dx="1045" dy="1056" grid="1" gridSize="10" guides="1" tooltips="1" connect="1" arrows="1" fold="1" page="1" pageScale="1" pageWidth="827" pageHeight="1169" math="0" shadow="0">
      <root>
        <mxCell id="0" />
        <mxCell id="1" parent="0" />
        <mxCell id="cTeIUCVqAOS7IZZiDfQp-3" value="&lt;font face=&quot;helvetica neue&quot;&gt;Control Plane&lt;/font&gt;" style="text;html=1;align=center;verticalAlign=middle;whiteSpace=wrap;rounded=0;" vertex="1" parent="1">
          <mxGeometry x="65" y="196" width="60" height="30" as="geometry" />
        </mxCell>
        <mxCell id="cTeIUCVqAOS7IZZiDfQp-6" value="" style="aspect=fixed;sketch=0;html=1;dashed=0;whitespace=wrap;fillColor=#2875E2;strokeColor=#ffffff;points=[[0.005,0.63,0],[0.1,0.2,0],[0.9,0.2,0],[0.5,0,0],[0.995,0.63,0],[0.72,0.99,0],[0.5,1,0],[0.28,0.99,0]];shape=mxgraph.kubernetes.icon2;kubernetesLabel=1;prIcon=control_plane" vertex="1" parent="1">
          <mxGeometry x="70" y="140" width="50" height="48" as="geometry" />
        </mxCell>
        <mxCell id="cTeIUCVqAOS7IZZiDfQp-7" value="" style="aspect=fixed;sketch=0;html=1;dashed=0;whitespace=wrap;fillColor=#2875E2;strokeColor=#ffffff;points=[[0.005,0.63,0],[0.1,0.2,0],[0.9,0.2,0],[0.5,0,0],[0.995,0.63,0],[0.72,0.99,0],[0.5,1,0],[0.28,0.99,0]];shape=mxgraph.kubernetes.icon2;kubernetesLabel=1;prIcon=etcd" vertex="1" parent="1">
          <mxGeometry x="75" y="330" width="50" height="48" as="geometry" />
        </mxCell>
        <mxCell id="cTeIUCVqAOS7IZZiDfQp-8" value="&lt;font face=&quot;helvetica neue&quot;&gt;etcd&lt;/font&gt;" style="text;html=1;align=center;verticalAlign=middle;whiteSpace=wrap;rounded=0;" vertex="1" parent="1">
          <mxGeometry x="70" y="390" width="60" height="30" as="geometry" />
        </mxCell>
        <mxCell id="cTeIUCVqAOS7IZZiDfQp-4" value="&lt;font face=&quot;helvetica neue&quot;&gt;Cloud Control Manager&lt;/font&gt;" style="text;html=1;align=center;verticalAlign=middle;whiteSpace=wrap;rounded=0;" vertex="1" parent="1">
          <mxGeometry x="235" y="226" width="60" height="30" as="geometry" />
        </mxCell>
        <mxCell id="cTeIUCVqAOS7IZZiDfQp-9" value="" style="aspect=fixed;sketch=0;html=1;dashed=0;whitespace=wrap;fillColor=#2875E2;strokeColor=#ffffff;points=[[0.005,0.63,0],[0.1,0.2,0],[0.9,0.2,0],[0.5,0,0],[0.995,0.63,0],[0.72,0.99,0],[0.5,1,0],[0.28,0.99,0]];shape=mxgraph.kubernetes.icon2;kubernetesLabel=1;prIcon=sched" vertex="1" parent="1">
          <mxGeometry x="75" y="480" width="50" height="48" as="geometry" />
        </mxCell>
        <mxCell id="cTeIUCVqAOS7IZZiDfQp-10" value="&lt;font face=&quot;helvetica neue&quot;&gt;kube-scheduler&lt;/font&gt;" style="text;html=1;align=center;verticalAlign=middle;whiteSpace=wrap;rounded=0;" vertex="1" parent="1">
          <mxGeometry x="70" y="540" width="60" height="30" as="geometry" />
        </mxCell>
        <mxCell id="cTeIUCVqAOS7IZZiDfQp-12" value="" style="aspect=fixed;sketch=0;html=1;dashed=0;whitespace=wrap;fillColor=#2875E2;strokeColor=#ffffff;points=[[0.005,0.63,0],[0.1,0.2,0],[0.9,0.2,0],[0.5,0,0],[0.995,0.63,0],[0.72,0.99,0],[0.5,1,0],[0.28,0.99,0]];shape=mxgraph.kubernetes.icon2;prIcon=c_m" vertex="1" parent="1">
          <mxGeometry x="185" y="480" width="50" height="48" as="geometry" />
        </mxCell>
        <mxCell id="cTeIUCVqAOS7IZZiDfQp-13" value="&lt;font face=&quot;helvetica neue&quot;&gt;Control Manager&lt;/font&gt;" style="text;html=1;align=center;verticalAlign=middle;whiteSpace=wrap;rounded=0;" vertex="1" parent="1">
          <mxGeometry x="180" y="540" width="60" height="30" as="geometry" />
        </mxCell>
        <mxCell id="cTeIUCVqAOS7IZZiDfQp-15" value="&lt;font face=&quot;helvetica neue&quot;&gt;kube-Porxy&lt;/font&gt;" style="text;html=1;align=center;verticalAlign=middle;whiteSpace=wrap;rounded=0;" vertex="1" parent="1">
          <mxGeometry x="585" y="435" width="60" height="30" as="geometry" />
        </mxCell>
        <mxCell id="cTeIUCVqAOS7IZZiDfQp-16" value="" style="aspect=fixed;sketch=0;html=1;dashed=0;whitespace=wrap;fillColor=#2875E2;strokeColor=#ffffff;points=[[0.005,0.63,0],[0.1,0.2,0],[0.9,0.2,0],[0.5,0,0],[0.995,0.63,0],[0.72,0.99,0],[0.5,1,0],[0.28,0.99,0]];shape=mxgraph.kubernetes.icon2;kubernetesLabel=1;prIcon=k_proxy" vertex="1" parent="1">
          <mxGeometry x="590" y="380" width="50" height="48" as="geometry" />
        </mxCell>
        <mxCell id="cTeIUCVqAOS7IZZiDfQp-17" value="" style="aspect=fixed;sketch=0;html=1;dashed=0;whitespace=wrap;fillColor=#2875E2;strokeColor=#ffffff;points=[[0.005,0.63,0],[0.1,0.2,0],[0.9,0.2,0],[0.5,0,0],[0.995,0.63,0],[0.72,0.99,0],[0.5,1,0],[0.28,0.99,0]];shape=mxgraph.kubernetes.icon2;kubernetesLabel=1;prIcon=kubelet" vertex="1" parent="1">
          <mxGeometry x="480" y="380" width="50" height="48" as="geometry" />
        </mxCell>
        <mxCell id="cTeIUCVqAOS7IZZiDfQp-18" value="&lt;font face=&quot;helvetica neue&quot;&gt;kubelet&lt;/font&gt;" style="text;html=1;align=center;verticalAlign=middle;whiteSpace=wrap;rounded=0;" vertex="1" parent="1">
          <mxGeometry x="480" y="435" width="60" height="30" as="geometry" />
        </mxCell>
        <mxCell id="cTeIUCVqAOS7IZZiDfQp-20" value="&lt;font face=&quot;helvetica neue&quot;&gt;API&lt;/font&gt;" style="text;html=1;align=center;verticalAlign=middle;whiteSpace=wrap;rounded=0;" vertex="1" parent="1">
          <mxGeometry x="230" y="398" width="60" height="30" as="geometry" />
        </mxCell>
        <mxCell id="cTeIUCVqAOS7IZZiDfQp-21" value="" style="aspect=fixed;sketch=0;html=1;dashed=0;whitespace=wrap;fillColor=#2875E2;strokeColor=#ffffff;points=[[0.005,0.63,0],[0.1,0.2,0],[0.9,0.2,0],[0.5,0,0],[0.995,0.63,0],[0.72,0.99,0],[0.5,1,0],[0.28,0.99,0]];shape=mxgraph.kubernetes.icon2;prIcon=pod" vertex="1" parent="1">
          <mxGeometry x="485" y="480" width="50" height="48" as="geometry" />
        </mxCell>
        <mxCell id="cTeIUCVqAOS7IZZiDfQp-22" value="&lt;font face=&quot;helvetica neue&quot;&gt;Pod&lt;/font&gt;" style="text;html=1;align=center;verticalAlign=middle;whiteSpace=wrap;rounded=0;" vertex="1" parent="1">
          <mxGeometry x="480" y="540" width="60" height="30" as="geometry" />
        </mxCell>
        <mxCell id="cTeIUCVqAOS7IZZiDfQp-23" value="" style="aspect=fixed;sketch=0;html=1;dashed=0;whitespace=wrap;fillColor=#2875E2;strokeColor=#ffffff;points=[[0.005,0.63,0],[0.1,0.2,0],[0.9,0.2,0],[0.5,0,0],[0.995,0.63,0],[0.72,0.99,0],[0.5,1,0],[0.28,0.99,0]];shape=mxgraph.kubernetes.icon2;kubernetesLabel=1;prIcon=api" vertex="1" parent="1">
          <mxGeometry x="235" y="342" width="50" height="48" as="geometry" />
        </mxCell>
        <mxCell id="cTeIUCVqAOS7IZZiDfQp-24" value="" style="aspect=fixed;sketch=0;html=1;dashed=0;whitespace=wrap;fillColor=#2875E2;strokeColor=#ffffff;points=[[0.005,0.63,0],[0.1,0.2,0],[0.9,0.2,0],[0.5,0,0],[0.995,0.63,0],[0.72,0.99,0],[0.5,1,0],[0.28,0.99,0]];shape=mxgraph.kubernetes.icon2;kubernetesLabel=1;prIcon=c_c_m" vertex="1" parent="1">
          <mxGeometry x="235" y="160" width="50" height="48" as="geometry" />
        </mxCell>
      </root>
    </mxGraphModel>
  </diagram>
</mxfile>
